<?xml version="1.0" standalone="no"?>
<!-- Generator: Adobe Fireworks 10, Export SVG Extension by Aaron Beall (http://fireworks.abeall.com) . Version: 0.6.1  -->
<!DOCTYPE svg PUBLIC "-//W3C//DTD SVG 1.1//EN" "http://www.w3.org/Graphics/SVG/1.1/DTD/svg11.dtd">
<svg id="Untitled-document" viewBox="0 0 64 64" style="background-color:#ffffff00" version="1.1"
	xmlns="http://www.w3.org/2000/svg" xmlns:xlink="http://www.w3.org/1999/xlink" xml:space="preserve"
	x="0px" y="0px" width="64px" height="64px"
>
	<g id="Layer%2012">
		<path d="M 50 24 L 50 40 C 50 43.3138 47.3138 46 44 46 L 20 46 C 16.6862 46 14 43.3138 14 40 L 14 24 C 14 20.6862 16.6862 18 20 18 L 44 18 C 47.3138 18 50 20.6862 50 24 ZM 0 32 C 0 49.6733 14.3267 64 32 64 C 49.6733 64 64 49.6733 64 32 C 64 14.3267 49.6733 0 32 0 C 14.3267 0 0 14.3267 0 32 ZM 40 32 L 26 24 L 26 40 L 40 32 Z" fill="#51b656"/>
	</g>
</svg>