<?xml version="1.0" standalone="no"?>
<!-- Generator: Adobe Fireworks 10, Export SVG Extension by Aaron Beall (http://fireworks.abeall.com) . Version: 0.6.1  -->
<!DOCTYPE svg PUBLIC "-//W3C//DTD SVG 1.1//EN" "http://www.w3.org/Graphics/SVG/1.1/DTD/svg11.dtd">
<svg id="Untitled-fotostory" viewBox="0 0 64 64" style="background-color:#ffffff00" version="1.1"
	xmlns="http://www.w3.org/2000/svg" xmlns:xlink="http://www.w3.org/1999/xlink" xml:space="preserve"
	x="0px" y="0px" width="64px" height="64px"
>
	<g id="Layer%2013">
		<path d="M 0 32 C 0 49.6733 14.3267 64 32 64 C 49.6733 64 64 49.6733 64 32 C 64 14.3267 49.6733 0 32 0 C 14.3267 0 0 14.3267 0 32 ZM 14 41.915 L 21.9245 34.1608 L 27.6643 39.9007 L 30.5343 42.7706 L 33.3592 39.9249 L 36.157 37.1066 L 40.4205 41.3701 L 43.2629 44.2125 L 46 41.3871 L 50 37.26 L 50 46 L 14 46 L 14 41.915 ZM 50 31.58 L 43.1712 38.5583 L 38.928 34.3151 L 36.0992 31.4863 L 33.3146 34.2642 L 30.5031 37.0688 L 24.791 31.3567 L 21.9349 28.5006 L 19.0546 31.2909 L 14 36.19 L 14 18 L 50 18 L 50 31.58 ZM 39 24.5 C 39 26.9853 41.0147 29 43.5 29 C 45.9853 29 48 26.9853 48 24.5 C 48 22.0147 45.9853 20 43.5 20 C 41.0147 20 39 22.0147 39 24.5 Z" fill="#51b656"/>
	</g>
</svg>