<?xml version="1.0" encoding="utf-8"?>
<!-- Generator: Adobe Illustrator 18.0.0, SVG Export Plug-In . SVG Version: 6.00 Build 0)  -->
<!DOCTYPE svg PUBLIC "-//W3C//DTD SVG 1.1//EN" "http://www.w3.org/Graphics/SVG/1.1/DTD/svg11.dtd">
<svg version="1.1" id="Layer_1" xmlns="http://www.w3.org/2000/svg" xmlns:xlink="http://www.w3.org/1999/xlink" x="0px" y="0px"
	 viewBox="0 0 110.9 83.6" enable-background="new 0 0 110.9 83.6" xml:space="preserve">
<path fill="#B2B2B2" d="M49.4,13.7H89c1.7,0,3.1-1.3,3.1-3v-0.1c0-1.7-1.4-3-3.1-3H49.4c-1.7,0-3.1,1.3-3.1,3v0.1
	C46.3,12.3,47.7,13.7,49.4,13.7"/>
<path fill="#B2B2B2" d="M46.3,22.1c0,1.7,1.4,3,3.1,3h53.2c1.7,0,3.1-1.3,3.1-3v-0.1c0-1.7-1.4-3-3.1-3H49.4
	C47.7,19.1,46.3,20.4,46.3,22.1L46.3,22.1z"/>
<path fill="#B2B2B2" d="M46.3,33.6c0,1.7,1.4,3,3.1,3h53.2c1.7,0,3.1-1.3,3.1-3v-0.1c0-1.7-1.4-3-3.1-3H49.4
	C47.7,30.5,46.3,31.9,46.3,33.6L46.3,33.6z"/>
<path fill="#B2B2B2" d="M46.3,50.9c0,1.7,1.4,3,3.1,3H89c1.7,0,3.1-1.3,3.1-3v-0.1c0-1.7-1.4-3-3.1-3H49.4
	C47.7,47.8,46.3,49.1,46.3,50.9L46.3,50.9z"/>
<path fill="#B2B2B2" d="M46.3,62.3c0,1.7,1.4,3,3.1,3H78c1.7,0,3.1-1.3,3.1-3v-0.1c0-1.7-1.4-3-3.1-3H49.4
	C47.7,59.3,46.3,60.6,46.3,62.3L46.3,62.3z"/>
<path fill="#B2B2B2" d="M46.3,73.8c0,1.7,1.4,3,3.1,3h53.2c1.7,0,3.1-1.3,3.1-3v-0.1c0-1.7-1.4-3-3.1-3H49.4
	C47.7,70.7,46.3,72.1,46.3,73.8L46.3,73.8z"/>
<path fill="#B2B2B2" d="M11.3,23.9v15.3h25.4V23.9c0-1.3-1.2-2.3-2.6-2.3h-2.9c-0.5,0-1,0.2-1.3,0.6l-4.3,5.3l-1-1.9l1.6-3.1
	c0.2-0.4-0.1-0.9-0.7-0.9h-3.3c-0.5,0-0.9,0.5-0.7,0.9l1.7,3.1l-1,1.9l-4.1-5.3c-0.3-0.4-0.8-0.6-1.3-0.6h-3
	C12.5,21.6,11.3,22.6,11.3,23.9"/>
<path fill="#B2B2B2" d="M24,19.9c4.3,0,7.8-3.3,7.8-7.4C31.8,8.3,28.3,5,24,5c-4.3,0-7.8,3.3-7.8,7.4C16.2,16.5,19.7,19.9,24,19.9"
	/>
<path fill="#B2B2B2" d="M11.3,79.4h25.4V64.1c0-1.3-1.2-2.3-2.6-2.3h-2.9c-0.5,0-1,0.2-1.3,0.6l-4.3,5.3l-1-1.9l1.6-3.1
	c0.2-0.4-0.1-0.9-0.7-0.9h-3.3c-0.5,0-0.9,0.5-0.7,0.9l1.7,3.1l-1,1.9l-4.1-5.3c-0.3-0.4-0.8-0.6-1.3-0.6h-3c-1.4,0-2.6,1-2.6,2.3
	L11.3,79.4z"/>
<path fill="#B2B2B2" d="M16.2,52.6c0,4.1,3.5,7.4,7.8,7.4s7.8-3.3,7.8-7.4c0-4.1-3.5-7.4-7.8-7.4S16.2,48.5,16.2,52.6"/>
</svg>
