<?xml version="1.0" encoding="utf-8"?>
<!-- Generator: Adobe Illustrator 18.0.0, SVG Export Plug-In . SVG Version: 6.00 Build 0)  -->
<!DOCTYPE svg PUBLIC "-//W3C//DTD SVG 1.1//EN" "http://www.w3.org/Graphics/SVG/1.1/DTD/svg11.dtd">
<svg version="1.1" id="Layer_1" xmlns="http://www.w3.org/2000/svg" xmlns:xlink="http://www.w3.org/1999/xlink" x="0px" y="0px"
	 viewBox="0 0 110.9 83.6" enable-background="new 0 0 110.9 83.6" xml:space="preserve">
<path fill="#B2B2B2" d="M45,34.3h-1.1V23.6h7.6v1.9h-5.4v2.4h4.7v1.8h-4.7v4.5H45z M35.3,25.4h2.1c0.8,0,1.5,0.3,1.9,0.8
	c0.4,0.6,0.6,1.4,0.6,2.5c0,1.2-0.2,2.1-0.7,2.8c-0.5,0.6-1.1,0.9-2,0.9h-1.9V25.4z M37.5,34.3c1.5,0,2.7-0.5,3.5-1.4
	c0.8-1,1.2-2.4,1.2-4.2c0-1.7-0.4-2.9-1.1-3.8c-0.8-0.9-1.9-1.3-3.4-1.3h-4.6v10.7H37.5z M25.4,25.4h1.9c0.6,0,1.1,0.1,1.4,0.4
	c0.3,0.2,0.5,0.6,0.5,1.1c0,0.6-0.2,1-0.5,1.2c-0.3,0.3-0.8,0.4-1.4,0.4h-1.9V25.4z M25.4,34.3v-3.8c0.6,0,1.4,0,2.2,0
	c1.2,0,2.1-0.3,2.8-0.9c0.6-0.6,1-1.5,1-2.6c0-1.1-0.3-1.9-1-2.5c-0.6-0.6-1.6-0.8-2.8-0.8h-4.5v10.7H25.4z M52.3,50.7H21.5v-3.2
	h30.8V50.7z M52.3,42.6H21.5v-3.2h30.8V42.6z M20.9,64.5h31.4v3.2H20.9V64.5z M21.2,55.9h31.4v3.2H21.2V55.9z M64.8,49.9l-0.9-3.1
	l24.7-6.9l0.9,3.1L64.8,49.9z M64.8,41.7l-0.9-3.1l24.7-6.9l0.9,3.1L64.8,41.7z M64.8,33.5L64,30.4l24.7-6.9l0.9,3.1L64.8,33.5z
	 M64.8,25.4L64,22.3l18.4-5.1l6.3-1.8l0.5,1.8l0.4,1.3L64.8,25.4z M64.2,66.9l-0.8-3.1l25.3-6.9l0.8,3.1L64.2,66.9z M64.5,58.2
	l-0.8-3.1l25.3-6.9l0.8,3.1L64.5,58.2z M99.8,17.1V73H75.7l21.3-4V14.6h2.9V17.1z M75.7,11.4l18.1-3.4v58.3l-33.9,6.3V14.4L67,13
	L75.7,11.4z M16.8,17.1v-2.5h39.9V73H16.8V17.1z M103,17.1v-5.7h-6V4.2l-38.8,7.2H13.6v5.7h-3.3v61.5h96V17.1H103z"/>
</svg>
