<?xml version="1.0" standalone="no"?>
<!-- Generator: Adobe Fireworks 10, Export SVG Extension by Aaron Beall (http://fireworks.abeall.com) . Version: 0.6.1  -->
<!DOCTYPE svg PUBLIC "-//W3C//DTD SVG 1.1//EN" "http://www.w3.org/Graphics/SVG/1.1/DTD/svg11.dtd">
<svg id="Untitled-report" viewBox="0 0 64 64" style="background-color:#ffffff00" version="1.1"
	xmlns="http://www.w3.org/2000/svg" xmlns:xlink="http://www.w3.org/1999/xlink" xml:space="preserve"
	x="0px" y="0px" width="64px" height="64px"
>
	<g id="Layer%201">
		<path d="M 18 14 L 46 14 L 46 50 L 18 50 L 18 14 ZM 0 32 C 0 49.6733 14.3267 64 32 64 C 49.6733 64 64 49.6733 64 32 C 64 14.3267 49.6733 0 32 0 C 14.3267 0 0 14.3267 0 32 ZM 22 42 L 22 46 L 34 46 L 34 42 L 22 42 ZM 22 36 L 22 40 L 42 40 L 42 36 L 22 36 ZM 22 30 L 22 34 L 42 34 L 42 30 L 22 30 ZM 22 24 L 22 28 L 42 28 L 42 24 L 22 24 ZM 22 18 L 22 22 L 42 22 L 42 18 L 22 18 Z" fill="#51b656"/>
	</g>
</svg>